HIERARCHY
ROOT joint_Root
{
	OFFSET 0.0 0.0 0.0
	CHANNELS 6 Xposition Yposition Zposition Zrotation Xrotation Yrotation 
	JOINT Hips
	{
		OFFSET -0.726466 93.3139 -2.00062
		CHANNELS 6 Xposition Yposition Zposition Zrotation Xrotation Yrotation 
		JOINT Spine
		{
			OFFSET 15.7357 0.0 0.0
			CHANNELS 6 Xposition Yposition Zposition Zrotation Xrotation Yrotation 
			JOINT Chest
			{
				OFFSET 8.98455 -0.406207 0.0
				CHANNELS 6 Xposition Yposition Zposition Zrotation Xrotation Yrotation 
				JOINT Neck
				{
					OFFSET 16.3773 0.0 0.0
					CHANNELS 6 Xposition Yposition Zposition Zrotation Xrotation Yrotation 
					JOINT Head
					{
						OFFSET 6.45672 0.0 0.0
						CHANNELS 6 Xposition Yposition Zposition Zrotation Xrotation Yrotation 
						End Site
						{
							OFFSET 0.0 0.0 0.0
						}
					}
				}
				JOINT Shoulder_L
				{
					OFFSET 12.9942 -0.242716 4.98039
					CHANNELS 6 Xposition Yposition Zposition Zrotation Xrotation Yrotation 
					JOINT UpperArm_L
					{
						OFFSET 5.34809 0.0 0.0
						CHANNELS 6 Xposition Yposition Zposition Zrotation Xrotation Yrotation 
						JOINT LowerArm_L
						{
							OFFSET 24.3286 1.87007e-05 0.0
							CHANNELS 6 Xposition Yposition Zposition Zrotation Xrotation Yrotation 
							JOINT Hand_L
							{
								OFFSET 22.2916 0.0 0.0
								CHANNELS 6 Xposition Yposition Zposition Zrotation Xrotation Yrotation 
								End Site
								{
									OFFSET 0.0 0.0 0.0
								}
							}
						}
					}
				}
				JOINT Shoulder_R
				{
					OFFSET 12.9945 -0.242716 -4.98039
					CHANNELS 6 Xposition Yposition Zposition Zrotation Xrotation Yrotation 
					JOINT UpperArm_R
					{
						OFFSET -5.34813 0.0 0.0
						CHANNELS 6 Xposition Yposition Zposition Zrotation Xrotation Yrotation 
						JOINT LowerArm_R
						{
							OFFSET -24.3289 0.000322201 0.0
							CHANNELS 6 Xposition Yposition Zposition Zrotation Xrotation Yrotation 
							JOINT Hand_R
							{
								OFFSET -22.2915 -0.000108084 0.0
								CHANNELS 6 Xposition Yposition Zposition Zrotation Xrotation Yrotation 
								End Site
								{
									OFFSET 0.0 0.0 0.0
								}
							}
						}
					}
				}
			}
		}
		JOINT UpperLeg_L
		{
			OFFSET -2.19248 -6.46944 0.0
			CHANNELS 6 Xposition Yposition Zposition Zrotation Xrotation Yrotation 
			JOINT LowerLeg_L
			{
				OFFSET 39.0811 0.0 -1.23785e-05
				CHANNELS 6 Xposition Yposition Zposition Zrotation Xrotation Yrotation 
				JOINT Foot_L
				{
					OFFSET 40.9854 0.0 -1.26872e-05
					CHANNELS 6 Xposition Yposition Zposition Zrotation Xrotation Yrotation 
					JOINT Toes_L
					{
						OFFSET 11.7543 0.0 0.0
						CHANNELS 6 Xposition Yposition Zposition Zrotation Xrotation Yrotation 
						End Site
						{
							OFFSET 0.0 0.0 0.0
						}
					}
				}
			}
		}
		JOINT UpperLeg_R
		{
			OFFSET -2.19251 6.46944 0.0
			CHANNELS 6 Xposition Yposition Zposition Zrotation Xrotation Yrotation 
			JOINT LowerLeg_R
			{
				OFFSET -39.0811 -0.00228153 -0.0401928
				CHANNELS 6 Xposition Yposition Zposition Zrotation Xrotation Yrotation 
				JOINT Foot_R
				{
					OFFSET -40.9854 0.0 0.0
					CHANNELS 6 Xposition Yposition Zposition Zrotation Xrotation Yrotation 
					JOINT Toes_R
					{
						OFFSET -11.7543 0.0 0.0
						CHANNELS 6 Xposition Yposition Zposition Zrotation Xrotation Yrotation 
						End Site
						{
							OFFSET 0.0 0.0 0.0
						}
					}
				}
			}
		}
	}
}
MOTION
Frames:	5
Frame Time:	0.0333333
0.000000 0.000000 0.000000 0.000000 0.000000 -0.000000 138.301000 88.626200 174.941000 -87.642000 24.162200 179.084000 15.735700 0.000005 -0.000001 114.683000 80.599000 -114.508000 8.984550 -0.406207 -0.000000 9.370560 7.809940 -0.292431 16.377300 -0.000001 -0.000001 5.244600 2.690180 -0.071595 6.456720 -0.000001 -0.000000 -1.308290 0.797554 -8.511970 12.994200 -0.242716 4.980390 -89.167700 -1.726560 -64.258900 5.348090 -0.000007 -0.000001 -72.691700 14.552100 9.098210 24.328600 0.000019 0.000005 3.000680 8.919640 -18.679400 22.291600 -0.000001 0.000005 4.566480 5.475170 -5.564860 12.994500 -0.242716 -4.980390 89.209100 2.459490 -72.166800 -5.348130 -0.000001 -0.000004 -46.719000 9.942240 -42.695300 -24.328900 0.000322 -0.000009 3.165110 3.256120 -44.243300 -22.291500 -0.000108 -0.000004 9.636580 5.503240 -6.664100 -2.192480 -6.469440 -0.000000 175.641000 -20.344600 -30.403900 39.081100 -0.000007 -0.000012 0.060328 -0.225972 14.947900 40.985400 -0.000006 -0.000013 8.859150 -10.816300 -56.158900 11.754300 -0.000000 0.000003 -0.003232 -0.043209 -18.334100 -2.192510 6.469440 -0.000001 170.164000 28.413800 -174.445000 -39.081100 -0.002282 -0.040193 0.022279 -0.035645 28.025100 -40.985400 0.000008 0.000006 -10.596200 -9.312250 -72.393000 -11.754300 -0.000006 -0.000006 -1.411720 -1.625760 -20.633200
0.000000 0.000000 0.000000 0.000000 0.000000 -0.000000 138.912000 88.236600 171.830000 -87.948200 24.736600 178.397000 15.735700 0.000005 -0.000001 114.949000 80.695700 -115.248000 8.984550 -0.406207 -0.000000 9.189680 7.803250 -1.225780 16.377300 -0.000001 -0.000001 5.246330 2.718780 -0.142991 6.456720 -0.000001 -0.000000 -2.010790 0.726329 -8.893500 12.994200 -0.242716 4.980390 -89.470300 -1.101990 -64.324200 5.348090 -0.000007 -0.000001 -73.361100 14.294200 9.550580 24.328600 0.000019 0.000005 3.176130 9.646200 -18.322700 22.291600 -0.000001 0.000005 4.034010 5.474090 -5.523960 12.994500 -0.242716 -4.980390 89.099800 2.857730 -72.507900 -5.348130 -0.000001 -0.000004 -45.859200 13.318400 -42.680600 -24.328900 0.000322 -0.000009 3.109380 3.123970 -44.919000 -22.291500 -0.000108 -0.000004 9.578930 5.505710 -6.765260 -2.192480 -6.469440 -0.000000 176.041000 -18.935900 -33.597400 39.081100 -0.000007 -0.000012 0.136343 -0.340715 21.809900 40.985400 -0.000006 -0.000013 7.412560 -8.762960 -51.531800 11.754300 -0.000000 0.000003 -0.005701 -0.068106 -19.348400 -2.192510 6.469440 -0.000001 168.555000 27.164000 -174.053000 -39.081100 -0.002282 -0.040193 -0.046901 0.090422 29.040300 -40.985400 0.000008 0.000006 -12.097900 -8.695380 -69.483300 -11.754300 -0.000006 -0.000006 -3.323390 -3.553430 -24.256000
0.000000 0.000000 0.000000 0.000000 0.000000 -0.000000 139.412000 87.950500 168.201000 -88.460300 25.195400 178.117000 15.735700 0.000005 -0.000001 114.490000 80.793700 -115.356000 8.984550 -0.406207 -0.000000 9.107550 7.582180 -2.336550 16.377300 -0.000001 -0.000001 5.056500 2.734970 -0.181618 6.456720 -0.000001 -0.000000 -2.571980 0.682582 -8.996250 12.994200 -0.242716 4.980390 -89.702600 -0.622659 -64.469900 5.348090 -0.000007 -0.000001 -74.004500 14.273400 9.339510 24.328600 0.000019 0.000005 3.175650 9.944660 -17.810400 22.291600 -0.000001 0.000005 3.742440 5.478650 -5.697060 12.994500 -0.242716 -4.980390 88.952400 3.371780 -72.728600 -5.348130 -0.000001 -0.000004 -44.982600 17.675000 -41.875900 -24.328900 0.000322 -0.000009 3.390750 3.378250 -45.165700 -22.291500 -0.000108 -0.000004 9.051670 5.510710 -6.971230 -2.192480 -6.469440 -0.000000 177.223000 -15.320700 -34.545000 39.081100 -0.000007 -0.000012 0.098122 -0.196321 26.556000 40.985400 -0.000006 -0.000013 5.623830 -10.947200 -47.764700 11.754300 -0.000000 0.000003 -0.005598 -0.067146 -19.309200 -2.192510 6.469440 -0.000001 166.518000 25.359400 -173.631000 -39.081100 -0.002282 -0.040193 -0.099815 0.174274 30.612200 -40.985400 0.000008 0.000006 -13.292100 -8.700830 -65.484000 -11.754300 -0.000006 -0.000006 -3.658720 -3.518010 -27.324200
0.000000 0.000000 0.000000 0.000000 0.000000 -0.000000 139.895000 87.773400 164.085000 -88.954400 25.176000 178.556000 15.735700 0.000005 -0.000001 113.568000 80.685900 -114.914000 8.984550 -0.406207 -0.000000 9.455200 7.386510 -3.304470 16.377300 -0.000001 -0.000001 4.704750 2.499590 -0.335027 6.456720 -0.000001 -0.000000 -3.052750 0.547869 -8.858830 12.994200 -0.242716 4.980390 -89.764100 -0.504657 -64.947000 5.348090 -0.000007 -0.000001 -74.694800 15.450500 7.877040 24.328600 0.000019 0.000005 3.162760 10.287800 -17.191900 22.291600 -0.000001 0.000005 3.448570 5.480040 -5.749880 12.994500 -0.242716 -4.980390 88.917900 3.471280 -72.673900 -5.348130 -0.000001 -0.000004 -45.206400 22.436400 -39.840700 -24.328900 0.000322 -0.000009 4.776060 4.804050 -44.940100 -22.291500 -0.000108 -0.000004 8.930950 5.513410 -7.083420 -2.192480 -6.469440 -0.000000 177.726000 -12.694500 -34.490800 39.081100 -0.000007 -0.000012 0.038779 -0.061470 32.245700 40.985400 -0.000006 -0.000013 3.919560 -13.881100 -49.626000 11.754300 -0.000000 0.000003 -0.003645 -0.047702 -18.517000 -2.192510 6.469440 -0.000001 164.391000 23.107300 -173.112000 -39.081100 -0.002282 -0.040193 -0.045883 0.074358 33.479200 -40.985400 0.000008 0.000006 -13.400300 -9.755210 -60.886300 -11.754300 -0.000006 -0.000006 -0.060558 -0.333583 -30.351200
0.000000 0.000000 0.000000 0.000000 0.000000 -0.000000 140.321000 87.746100 159.853000 -88.959200 24.863400 179.003000 15.735700 0.000005 -0.000001 113.204000 80.617400 -114.741000 8.984550 -0.406207 -0.000000 9.640080 7.325570 -3.693030 16.377300 -0.000001 -0.000001 4.806650 2.238990 -0.535051 6.456720 -0.000001 -0.000000 -3.350460 0.383812 -8.851510 12.994200 -0.242716 4.980390 -89.765900 -0.512868 -65.460300 5.348090 -0.000007 -0.000001 -75.064500 17.789000 5.620460 24.328600 0.000019 0.000005 3.465370 11.095000 -17.467400 22.291600 -0.000001 0.000005 3.292180 5.482770 -5.854680 12.994500 -0.242716 -4.980390 88.937700 3.401350 -72.644500 -5.348130 -0.000001 -0.000004 -46.541800 27.181500 -36.538500 -24.328900 0.000322 -0.000009 5.673700 5.964680 -43.719700 -22.291500 -0.000108 -0.000004 8.615040 5.513260 -7.078050 -2.192480 -6.469440 -0.000000 177.335000 -13.072500 -33.724400 39.081100 -0.000007 -0.000012 -0.058800 0.076858 37.418300 40.985400 -0.000006 -0.000013 3.111190 -12.909200 -55.387000 11.754300 -0.000000 0.000003 -0.000835 -0.013041 -17.107200 -2.192510 6.469440 -0.000001 163.245000 20.727600 -173.851000 -39.081100 -0.002282 -0.040193 0.079907 -0.099074 37.718200 -40.985400 0.000008 0.000006 -10.620300 -11.525700 -53.583900 -11.754300 -0.000006 -0.000006 -0.104536 -0.455673 -35.614000
